<svg width="271" height="642" viewBox="0 0 271 642" fill="none" xmlns="http://www.w3.org/2000/svg">
<g clip-path="url(#clip0_1_15)">
<path d="M138.042 0.159515C136.886 0.159515 135.729 0.159512 134.573 0.225724V224.823C135.729 224.823 136.886 224.89 138.042 224.89C172.784 224.89 206.103 213.051 230.668 191.979C255.234 170.906 269.035 142.325 269.035 112.524C269.035 82.7238 255.234 54.143 230.668 33.0705C206.103 11.998 172.784 0.159515 138.042 0.159515Z" fill="#0086F8"/>
<path d="M3.73347 0.159515C2.57732 0.159515 1.42032 0.159512 0.26416 0.225724V224.823C1.42032 224.823 2.57732 224.89 3.73347 224.89C38.475 224.89 71.7937 213.051 96.3594 191.979C120.926 170.906 134.726 142.325 134.726 112.524C134.726 82.7238 120.926 54.143 96.3594 33.0705C71.7937 11.998 38.475 0.159515 3.73347 0.159515Z" fill="#F9BC15"/>
<path d="M269.189 344.132H136.962C136.657 344.126 136.368 344.019 136.152 343.835C135.937 343.65 135.813 343.402 135.805 343.141V285.338C135.805 278.12 137.462 270.973 140.681 264.305C143.9 257.637 148.62 251.578 154.57 246.475C160.519 241.371 167.582 237.323 175.356 234.561C183.13 231.799 191.461 230.378 199.876 230.379C209.131 230.377 218.295 231.938 226.846 234.975C235.397 238.012 243.167 242.465 249.711 248.078C256.255 253.692 261.445 260.356 264.986 267.691C268.527 275.027 270.347 282.888 270.345 290.827V343.077C270.355 343.212 270.332 343.348 270.279 343.475C270.226 343.603 270.142 343.721 270.033 343.819C269.925 343.919 269.794 343.997 269.649 344.051C269.504 344.105 269.347 344.132 269.189 344.132Z" fill="#34A853"/>
<path d="M66.2615 515.029C74.9292 515.031 83.5126 513.569 91.5208 510.725C99.53 507.881 106.807 503.711 112.936 498.453C119.065 493.196 123.926 486.954 127.242 480.084C130.557 473.214 132.262 465.852 132.259 458.417V284.809C132.262 277.374 130.557 270.012 127.242 263.141C123.926 256.272 119.065 250.03 112.936 244.773C106.807 239.515 99.53 235.345 91.5208 232.501C83.5126 229.657 74.9292 228.194 66.2615 228.197C57.5937 228.194 49.0104 229.657 41.0018 232.501C32.9932 235.345 25.7166 239.515 19.5875 244.773C13.4585 250.03 8.59724 256.272 5.28163 263.141C1.96605 270.012 0.261077 277.374 0.264164 284.809V458.482C0.286839 473.484 7.24989 487.866 19.6241 498.468C31.9982 509.07 48.7719 515.026 66.2615 515.029Z" fill="#FF4131"/>
<path d="M204.04 460.665C240.831 460.665 270.655 435.082 270.655 403.523C270.655 371.965 240.831 346.382 204.04 346.382C167.25 346.382 137.426 371.965 137.426 403.523C137.426 435.082 167.25 460.665 204.04 460.665Z" fill="#0086F8"/>
<path d="M267.417 543.334L152.614 641.811H266.491V544.525" fill="#34A853"/>
<path d="M154.233 543.334L39.4308 641.811H153.231V544.525" fill="#0086F8"/>
<path d="M267.417 446.246L152.614 544.723H266.491V447.437" fill="#F9BC15"/>
</g>
<defs>
<clipPath id="clip0_1_15">
<rect width="271" height="641.969" fill="white" transform="translate(0 0.015625)"/>
</clipPath>
</defs>
</svg>
