<svg width="184" height="473" viewBox="0 0 184 473" fill="none" xmlns="http://www.w3.org/2000/svg">
<g clip-path="url(#clip0_1_14)">
<path d="M93.7261 0.121643C92.9411 0.121643 92.1555 0.12164 91.3705 0.170422V165.642C92.1555 165.642 92.9411 165.691 93.7261 165.691C117.315 165.691 139.937 156.969 156.616 141.444C173.296 125.919 182.666 104.862 182.666 82.906C182.666 60.9506 173.296 39.8938 156.616 24.3687C139.937 8.84359 117.315 0.121643 93.7261 0.121643Z" fill="#0086F8"/>
<path d="M2.5349 0.121643C1.74991 0.121643 0.964343 0.12164 0.179352 0.170422V165.642C0.964343 165.642 1.74991 165.691 2.5349 165.691C26.1233 165.691 48.7455 156.969 65.4248 141.444C82.1044 125.919 91.4748 104.862 91.4748 82.906C91.4748 60.9506 82.1044 39.8938 65.4248 24.3687C48.7455 8.84359 26.1233 0.121643 2.5349 0.121643Z" fill="#F9BC15"/>
<path d="M182.771 253.543H92.9923C92.7855 253.538 92.589 253.46 92.4426 253.324C92.2968 253.188 92.2125 253.005 92.2073 252.812V210.226C92.2068 204.908 93.3318 199.643 95.5176 194.73C97.7034 189.818 100.908 185.354 104.948 181.594C108.987 177.834 113.783 174.851 119.061 172.816C124.339 170.782 129.996 169.735 135.709 169.735C141.993 169.733 148.215 170.884 154.021 173.122C159.826 175.359 165.102 178.639 169.545 182.775C173.989 186.911 177.513 191.821 179.917 197.225C182.321 202.629 183.557 208.421 183.555 214.27V252.765C183.562 252.865 183.547 252.965 183.511 253.059C183.474 253.153 183.417 253.239 183.344 253.312C183.27 253.385 183.181 253.443 183.083 253.483C182.984 253.523 182.878 253.543 182.771 253.543Z" fill="#34A853"/>
<path d="M44.9894 379.45C50.8744 379.452 56.7023 378.375 62.1396 376.279C67.5775 374.184 72.5182 371.112 76.6796 367.238C80.8409 363.365 84.1415 358.766 86.3928 353.705C88.6435 348.643 89.8017 343.219 89.7994 337.741V209.837C89.8017 204.359 88.6435 198.935 86.3928 193.873C84.1415 188.812 80.8409 184.213 76.6796 180.34C72.5182 176.466 67.5775 173.394 62.1396 171.299C56.7023 169.203 50.8744 168.126 44.9894 168.128C39.1042 168.126 33.2764 169.203 27.8388 171.299C22.4013 173.394 17.4607 176.466 13.2993 180.34C9.13784 184.213 5.83724 188.812 3.58605 193.873C1.33488 198.935 0.177258 204.359 0.179355 209.837V337.79C0.19475 348.842 4.92243 359.438 13.3241 367.249C21.7257 375.06 33.1145 379.448 44.9894 379.45Z" fill="#FF4131"/>
<path d="M138.537 339.398C163.516 339.398 183.766 320.55 183.766 297.299C183.766 274.048 163.516 255.2 138.537 255.2C113.557 255.2 93.3074 274.048 93.3074 297.299C93.3074 320.55 113.557 339.398 138.537 339.398Z" fill="#0086F8"/>
<path d="M181.567 400.304L103.62 472.857H180.939V401.181" fill="#34A853"/>
<path d="M104.719 400.304L26.7722 472.857H104.039V401.181" fill="#0086F8"/>
<path d="M181.567 328.775L103.62 401.327H180.939V329.652" fill="#F9BC15"/>
</g>
<defs>
<clipPath id="clip0_1_14">
<rect width="184" height="472.969" fill="white" transform="translate(0 0.015625)"/>
</clipPath>
</defs>
</svg>
